<?xml version="1.0" encoding="iso-8859-1"?>
<!-- Uploaded to: SVG Repo, www.svgrepo.com, Generator: SVG Repo Mixer Tools -->
<svg fill="#000000" version="1.1" id="Capa_1" xmlns="http://www.w3.org/2000/svg" xmlns:xlink="http://www.w3.org/1999/xlink" 
	 viewBox="0 0 60 60" xml:space="preserve">
<g>
	<path d="M22.5,48h-2v-1h-20v8.981C0.5,58.197,2.303,60,4.518,60h11.964c2.215,0,4.018-1.803,4.018-4.019V53h2v2.981
		c0,2.216,1.803,4.019,4.018,4.019h11.964c2.215,0,4.018-1.803,4.018-4.019V47h-20V48z M22.5,51h-2v-1h2V51z"/>
	<rect x="22.5" y="33" width="20" height="12"/>
	<rect x="0.5" y="33" width="20" height="12"/>
	<path d="M56.473,46.536c-0.191-1.65-1.398-2.984-2.973-3.393v-0.699c0.591,0.344,1.268,0.556,2,0.556c2.206,0,4-1.794,4-4
		s-1.794-4-4-4c-0.732,0-1.409,0.212-2,0.556V21c0-5.514-4.486-10-10-10h-7V9h-3V7.444C34.091,7.788,34.768,8,35.5,8
		c2.206,0,4-1.794,4-4s-1.794-4-4-4c-1.2,0-2.266,0.542-3,1.382C31.766,0.542,30.7,0,29.5,0c-2.206,0-4,1.794-4,4s1.794,4,4,4
		c0.732,0,1.409-0.212,2-0.556V9h-3v2h-14V9h-3V7.444C12.091,7.788,12.768,8,13.5,8c2.206,0,4-1.794,4-4s-1.794-4-4-4
		c-1.2,0-2.266,0.542-3,1.382C9.766,0.542,8.7,0,7.5,0c-2.206,0-4,1.794-4,4s1.794,4,4,4c0.732,0,1.409-0.212,2-0.556V9h-3v6h1
		v1.158c-4.16,1.297-7,5.109-7,9.533V31h20v-1h2v1h20v-5c0-4.491-2.9-8.5-7-9.83V15h1v-2h7c4.411,0,8,3.589,8,8v22.143
		c-1.575,0.41-2.782,1.743-2.973,3.393C47.292,47.239,46.5,48.558,46.5,50s0.792,2.761,2.027,3.464C48.757,55.451,50.451,57,52.5,57
		s3.743-1.549,3.973-3.536C57.708,52.761,58.5,51.442,58.5,50S57.708,47.239,56.473,46.536z M35.5,2c1.103,0,2,0.897,2,2
		s-0.897,2-2,2s-2-0.897-2-2S34.397,2,35.5,2z M13.5,2c1.103,0,2,0.897,2,2s-0.897,2-2,2s-2-0.897-2-2S12.397,2,13.5,2z M7.5,6
		c-1.103,0-2-0.897-2-2s0.897-2,2-2s2,0.897,2,2S8.603,6,7.5,6z M22.5,28h-2v-1h2V28z M29.5,16.158
		c-3.941,1.229-6.693,4.716-6.972,8.842h-2.081c-0.393-4.076-3.154-7.6-6.947-8.83V15h1v-2h14v2h1V16.158z M29.5,6
		c-1.103,0-2-0.897-2-2s0.897-2,2-2s2,0.897,2,2S30.603,6,29.5,6z M53.5,52c0,0.553-0.448,1-1,1s-1-0.447-1-1v-4
		c0-0.553,0.448-1,1-1s1,0.447,1,1V52z"/>
</g>
</svg>